<?xml version="1.0" encoding="utf-8"?>
<!-- Generator: Adobe Illustrator 18.0.0, SVG Export Plug-In . SVG Version: 6.00 Build 0)  -->
<!DOCTYPE svg PUBLIC "-//W3C//DTD SVG 1.1//EN" "http://www.w3.org/Graphics/SVG/1.1/DTD/svg11.dtd">
<svg version="1.1" id="Layer_1" xmlns="http://www.w3.org/2000/svg" xmlns:xlink="http://www.w3.org/1999/xlink" x="0px" y="0px"
	 viewBox="0 0 64 64" enable-background="new 0 0 64 64" xml:space="preserve">
<g>
	<g>
		<g>
			<path d="M41.2,36c-1.6,0-3.2-0.6-4.4-1.8l-1.6-1.6l2.8-2.8l1.6,1.6c0.9,0.9,2.3,0.9,3.2,0l16.5-16.5c0.4-0.4,0.7-1,0.7-1.6
				c0-0.6-0.2-1.2-0.7-1.6l-7-7c-0.9-0.9-2.3-0.9-3.2,0L32.7,21.1c-0.4,0.4-0.7,1-0.7,1.6c0,0.6,0.2,1.2,0.7,1.6l1.6,1.6l-2.8,2.8
				l-1.6-1.6C28.7,26,28,24.4,28,22.8c0-1.7,0.7-3.3,1.8-4.4L46.3,1.8c2.5-2.5,6.4-2.5,8.9,0l7,7c1.2,1.2,1.8,2.8,1.8,4.4
				c0,1.7-0.7,3.3-1.8,4.4L45.7,34.2C44.5,35.4,42.8,36,41.2,36z"/>
		</g>
	</g>
	<g>
		<g>
			<rect x="30" y="20.7" transform="matrix(0.7071 0.7071 -0.7071 0.7071 32 -13.2548)" width="4" height="22.6"/>
		</g>
	</g>
	<g>
		<g>
			<path d="M13.2,64c-1.6,0-3.2-0.6-4.4-1.8l-7-7C0.7,54,0,52.4,0,50.8c0-1.7,0.7-3.3,1.8-4.4l16.5-16.5c2.5-2.5,6.4-2.5,8.9,0
				l1.6,1.6L26,34.2l-1.6-1.6c-0.9-0.9-2.3-0.9-3.2,0L4.7,49.1c-0.4,0.4-0.7,1-0.7,1.6c0,0.6,0.2,1.2,0.7,1.6l7,7
				c0.9,0.9,2.3,0.9,3.2,0l16.5-16.5c0.4-0.4,0.7-1,0.7-1.6c0-0.6-0.2-1.2-0.7-1.6L29.7,38l2.8-2.8l1.6,1.6c1.2,1.2,1.8,2.8,1.8,4.4
				c0,1.7-0.7,3.3-1.8,4.4L17.7,62.2C16.5,63.4,14.8,64,13.2,64z"/>
		</g>
	</g>
</g>
</svg>
